<?xml version="1.0" encoding="utf-8"?>
<!-- Generator: Adobe Illustrator 23.1.1, SVG Export Plug-In . SVG Version: 6.00 Build 0)  -->
<svg version="1.1" id="Layer_1" xmlns="http://www.w3.org/2000/svg" xmlns:xlink="http://www.w3.org/1999/xlink" x="0px" y="0px"
	 viewBox="0 0 256 256" style="enable-background:new 0 0 256 256;" xml:space="preserve">
<style type="text/css">
	.st0{fill:#FFFFFF;stroke:#071D41;stroke-miterlimit:10;}
	.st1{fill:#071D41;stroke:#FFFFFF;stroke-width:0.25;stroke-miterlimit:10;}
	.st2{fill:none;stroke:#FFFFFF;stroke-width:0.25;stroke-miterlimit:10;}
	.st3{fill:#FFFFFF;stroke:#071D41;stroke-width:0.5;stroke-miterlimit:10;}
	.st4{fill:#FFFFFF;stroke:#001D43;stroke-width:0.25;stroke-miterlimit:10;}
	.st5{fill:#071D41;}
	.st6{fill:#FFFFFF;}
	.st7{fill:#FCFDFF;}
	.st8{fill:none;stroke:#071D41;stroke-width:0.5;stroke-miterlimit:10;}
	.st9{fill:none;stroke:#071D41;stroke-width:0.25;stroke-miterlimit:10;}
	.st10{clip-path:url(#SVGID_2_);}
</style>
<g>
	<circle class="st0" cx="127.97" cy="125.09" r="67.9"/>
	<g>
		<g>
			<g>
				<path class="st1" d="M65.34,131.96c-0.2,0.82,0.16,1.66,0.87,2.12c1.52,0.98,4.34,2.14,7.28,0c0.65-0.47,0.93-1.3,0.73-2.08
					l-4.66-17.74L65.34,131.96z"/>
				<line class="st2" x1="69.56" y1="114.27" x2="69.51" y2="140.41"/>
				<path class="st2" d="M66.87,125.36l2.53,2.53L66.87,125.36z"/>
				<path class="st2" d="M69.42,125.88l2.57-2.48L69.42,125.88z"/>
				<path class="st2" d="M69.4,131.13l3.86-2.93L69.4,131.13z"/>
				<path class="st2" d="M68.16,120.15l1.36,1.36L68.16,120.15z"/>
			</g>
			<line class="st3" x1="69.52" y1="135.15" x2="69.52" y2="139.21"/>
		</g>
		<g>
			<g>
				<path class="st1" d="M182.48,133.43c-0.2,0.82,0.16,1.66,0.87,2.12c1.52,0.98,4.34,2.14,7.28,0c0.65-0.47,0.93-1.3,0.73-2.08
					l-4.66-17.74L182.48,133.43z"/>
				<line class="st2" x1="186.7" y1="115.74" x2="186.66" y2="140.98"/>
				<path class="st2" d="M184.02,126.83l2.53,2.53L184.02,126.83z"/>
				<path class="st2" d="M186.56,127.35l2.57-2.48L186.56,127.35z"/>
				<path class="st2" d="M186.54,132.6l3.86-2.93L186.54,132.6z"/>
				<path class="st2" d="M185.3,121.62l1.36,1.36L185.3,121.62z"/>
			</g>
			<line class="st3" x1="186.66" y1="136.62" x2="186.68" y2="140.74"/>
		</g>
		<g>
			<g>
				<path class="st1" d="M176.59,131.98c-0.2,0.82,0.16,1.66,0.87,2.12c1.52,0.98,4.34,2.14,7.28,0c0.65-0.47,0.93-1.3,0.73-2.08
					l-4.66-17.74L176.59,131.98z"/>
				<line class="st2" x1="180.81" y1="114.29" x2="180.76" y2="140.43"/>
				<path class="st2" d="M178.12,125.38l2.53,2.53L178.12,125.38z"/>
				<path class="st2" d="M180.67,125.9l2.57-2.48L180.67,125.9z"/>
				<path class="st2" d="M180.65,131.15l3.86-2.93L180.65,131.15z"/>
				<path class="st2" d="M179.41,120.17l1.36,1.36L179.41,120.17z"/>
			</g>
			<line class="st3" x1="180.76" y1="135.18" x2="180.76" y2="139.22"/>
		</g>
		<polyline class="st4" points="70.65,139.21 70.7,134.77 93.22,108.04 106.44,111.51 106.89,111.61 107.43,110.92 115.95,100.8 
			119.99,99.6 119.99,93.04 125.89,91.51 129.83,93 129.83,95.53 137.92,93.2 147.61,110.23 159.34,107.87 179.6,134.77 
			179.6,139.21 		"/>
		<polygon class="st5" points="125.87,99.23 127.28,96.25 129.83,95.52 129.83,92.92 125.89,91.43 		"/>
		<polygon class="st5" points="174.78,139.22 174.78,134.75 159.33,114.69 139.98,139.21 143.42,139.21 		"/>
		<polyline class="st5" points="75.37,139.21 75.4,134.69 93.24,113.8 110.89,137.22 140.59,97.8 147.61,110.15 140.16,111.77 
			119.48,139.21 		"/>
		<rect x="157.27" y="130.33" class="st6" width="4.18" height="8.8"/>
		<g>
			<rect x="90.68" y="131.09" class="st7" width="5.09" height="4.89"/>
			<line class="st8" x1="93.22" y1="131.08" x2="93.22" y2="135.98"/>
			<line class="st8" x1="95.77" y1="133.54" x2="90.68" y2="133.54"/>
		</g>
		<polyline class="st9" points="93.22,107.96 110.85,129.96 137.92,93.11 		"/>
	</g>
	<path class="st5" d="M61.4,139.01h132.73c0,0-6.28,50.51-64.68,53.95C129.44,192.97,77.2,196,61.4,139.01z"/>
	<g>
		<defs>
			<circle id="SVGID_1_" cx="127.85" cy="124.64" r="67.9"/>
		</defs>
		<clipPath id="SVGID_2_">
			<use xlink:href="#SVGID_1_"  style="overflow:visible;"/>
		</clipPath>
		<g class="st10">
			<path class="st2" d="M38.93,143.15c11.1,0,11.1,10.08,22.2,10.08c11.1,0,11.1-10.08,22.2-10.08c11.1,0,11.1,10.08,22.21,10.08
				c11.1,0,11.1-10.08,22.21-10.08c11.1,0,11.1,10.08,22.21,10.08c11.1,0,11.1-10.08,22.21-10.08c11.11,0,11.11,10.08,22.21,10.08
				s11.11-10.08,22.21-10.08"/>
		</g>
		<g class="st10">
			<path class="st2" d="M38.93,158.56c11.1,0,11.1,10.08,22.2,10.08c11.1,0,11.1-10.08,22.2-10.08c11.1,0,11.1,10.08,22.21,10.08
				c11.1,0,11.1-10.08,22.21-10.08c11.1,0,11.1,10.08,22.21,10.08c11.1,0,11.1-10.08,22.21-10.08c11.11,0,11.11,10.08,22.21,10.08
				c11.11,0,11.11-10.08,22.21-10.08"/>
		</g>
		<g class="st10">
			<path class="st2" d="M39.15,174.33c11.1,0,11.1,10.08,22.2,10.08c11.1,0,11.1-10.08,22.2-10.08c11.1,0,11.1,10.08,22.21,10.08
				c11.1,0,11.1-10.08,22.21-10.08c11.1,0,11.1,10.08,22.21,10.08c11.1,0,11.1-10.08,22.21-10.08c11.11,0,11.11,10.08,22.21,10.08
				s11.11-10.08,22.21-10.08"/>
		</g>
		<g class="st10">
			<path class="st2" d="M39.15,189.77c11.1,0,11.1,10.08,22.2,10.08c11.1,0,11.1-10.08,22.2-10.08c11.1,0,11.1,10.08,22.21,10.08
				c11.1,0,11.1-10.08,22.21-10.08c11.1,0,11.1,10.08,22.21,10.08c11.1,0,11.1-10.08,22.21-10.08c11.11,0,11.11,10.08,22.21,10.08
				s11.11-10.08,22.21-10.08"/>
		</g>
	</g>
</g>
</svg>
