<?xml version="1.0" encoding="UTF-8" standalone="no"?>
<!--Generator: Adobe Illustrator 23.1.1, SVG Export Plug-In . SVG Version: 6.00 Build 0)-->

<svg
   xmlns:dc="http://purl.org/dc/elements/1.1/"
   xmlns:cc="http://creativecommons.org/ns#"
   xmlns:rdf="http://www.w3.org/1999/02/22-rdf-syntax-ns#"
   xmlns:svg="http://www.w3.org/2000/svg"
   xmlns="http://www.w3.org/2000/svg"
   xmlns:xlink="http://www.w3.org/1999/xlink"
   xmlns:sodipodi="http://sodipodi.sourceforge.net/DTD/sodipodi-0.dtd"
   xmlns:inkscape="http://www.inkscape.org/namespaces/inkscape"
   version="1.1"
   id="Layer_1"
   x="0px"
   y="0px"
   viewBox="0 0 256 256"
   style="enable-background:new 0 0 256 256"
   sodipodi:docname="mdr.svg"
   inkscape:version="0.92.4 (5da689c313, 2019-01-14)">
  <metadata
     id="metadata292">
    <rdf:RDF>
      <cc:Work
         rdf:about="">
        <dc:format>image/svg+xml</dc:format>
        <dc:type
           rdf:resource="http://purl.org/dc/dcmitype/StillImage" />
      </cc:Work>
    </rdf:RDF>
  </metadata>
  <defs
     id="defs290" />
  <sodipodi:namedview
     pagecolor="#ffffff"
     bordercolor="#666666"
     borderopacity="1"
     objecttolerance="10"
     gridtolerance="10"
     guidetolerance="10"
     inkscape:pageopacity="0"
     inkscape:pageshadow="2"
     inkscape:window-width="2551"
     inkscape:window-height="1057"
     id="namedview288"
     showgrid="false"
     inkscape:zoom="2.04"
     inkscape:cx="128"
     inkscape:cy="101.07931"
     inkscape:window-x="425"
     inkscape:window-y="235"
     inkscape:window-maximized="0"
     inkscape:current-layer="Layer_1" />
  <style
     id="style179">
        .st1{fill:#071d41;stroke-miterlimit:10}.st1,.st2{stroke:#fff;stroke-width:.25}.st2,.st3{stroke-miterlimit:10}.st2{fill:none}.st3{fill:#fff;stroke:#071d41;stroke-width:.5}.st5{fill:#071d41}.st8{fill:none;stroke:#071d41;stroke-width:.5;stroke-miterlimit:10}.st10{clip-path:url(#SVGID_2_)}
    </style>
  <g
     id="g285"
     transform="matrix(1.871345,0,0,1.871345,-111.53216,-106.10531)">
    <circle
       cx="128"
       cy="125.1"
       r="67.900002"
       style="fill:#ffffff;stroke:#071d41;stroke-miterlimit:10"
       id="circle181" />
    <g
       id="g257">
      <g
         id="g199">
        <g
           id="g195">
          <path
             class="st1"
             d="m 65.3,132 c -0.2,0.8 0.2,1.7 0.9,2.1 1.5,1 4.3,2.1 7.3,0 0.7,-0.5 0.9,-1.3 0.7,-2.1 l -4.7,-17.7 z"
             id="path183"
             inkscape:connector-curvature="0"
             style="fill:#071d41;stroke:#ffffff;stroke-width:0.25;stroke-miterlimit:10" />
          <line
             class="st2"
             x1="69.559998"
             y1="114.27"
             x2="69.510002"
             y2="140.41"
             id="line185"
             style="fill:none;stroke:#ffffff;stroke-width:0.25;stroke-miterlimit:10" />
          <path
             class="st2"
             d="m 66.9,125.4 2.5,2.5 z"
             id="path187"
             inkscape:connector-curvature="0"
             style="fill:none;stroke:#ffffff;stroke-width:0.25;stroke-miterlimit:10" />
          <path
             class="st2"
             d="M 69.4,125.9 72,123.4 Z"
             id="path189"
             inkscape:connector-curvature="0"
             style="fill:none;stroke:#ffffff;stroke-width:0.25;stroke-miterlimit:10" />
          <path
             class="st2"
             d="m 69.4,131.1 3.9,-2.9 z"
             id="path191"
             inkscape:connector-curvature="0"
             style="fill:none;stroke:#ffffff;stroke-width:0.25;stroke-miterlimit:10" />
          <path
             class="st2"
             d="m 68.2,120.2 1.4,1.4 z"
             id="path193"
             inkscape:connector-curvature="0"
             style="fill:none;stroke:#ffffff;stroke-width:0.25;stroke-miterlimit:10" />
        </g>
        <line
           class="st3"
           x1="69.519997"
           y1="135.14999"
           x2="69.519997"
           y2="139.21001"
           id="line197"
           style="fill:#ffffff;stroke:#071d41;stroke-width:0.5;stroke-miterlimit:10" />
      </g>
      <g
         id="g217">
        <g
           id="g213">
          <path
             class="st1"
             d="m 182.5,133.4 c -0.2,0.8 0.2,1.7 0.9,2.1 1.5,1 4.3,2.1 7.3,0 0.7,-0.5 0.9,-1.3 0.7,-2.1 l -4.7,-17.7 z"
             id="path201"
             inkscape:connector-curvature="0"
             style="fill:#071d41;stroke:#ffffff;stroke-width:0.25;stroke-miterlimit:10" />
          <line
             class="st2"
             x1="186.7"
             y1="115.74"
             x2="186.66"
             y2="140.98"
             id="line203"
             style="fill:none;stroke:#ffffff;stroke-width:0.25;stroke-miterlimit:10" />
          <path
             class="st2"
             d="m 184,126.8 2.5,2.5 z"
             id="path205"
             inkscape:connector-curvature="0"
             style="fill:none;stroke:#ffffff;stroke-width:0.25;stroke-miterlimit:10" />
          <path
             class="st2"
             d="m 186.6,127.3 2.6,-2.5 z"
             id="path207"
             inkscape:connector-curvature="0"
             style="fill:none;stroke:#ffffff;stroke-width:0.25;stroke-miterlimit:10" />
          <path
             class="st2"
             d="m 186.5,132.6 3.9,-2.9 z"
             id="path209"
             inkscape:connector-curvature="0"
             style="fill:none;stroke:#ffffff;stroke-width:0.25;stroke-miterlimit:10" />
          <path
             class="st2"
             d="m 185.3,121.6 1.4,1.4 z"
             id="path211"
             inkscape:connector-curvature="0"
             style="fill:none;stroke:#ffffff;stroke-width:0.25;stroke-miterlimit:10" />
        </g>
        <line
           class="st3"
           x1="186.66"
           y1="136.62"
           x2="186.67999"
           y2="140.74001"
           id="line215"
           style="fill:#ffffff;stroke:#071d41;stroke-width:0.5;stroke-miterlimit:10" />
      </g>
      <g
         id="g235">
        <g
           id="g231">
          <path
             class="st1"
             d="m 176.6,132 c -0.2,0.8 0.2,1.7 0.9,2.1 1.5,1 4.3,2.1 7.3,0 0.7,-0.5 0.9,-1.3 0.7,-2.1 l -4.7,-17.7 z"
             id="path219"
             inkscape:connector-curvature="0"
             style="fill:#071d41;stroke:#ffffff;stroke-width:0.25;stroke-miterlimit:10" />
          <line
             class="st2"
             x1="180.81"
             y1="114.29"
             x2="180.75999"
             y2="140.42999"
             id="line221"
             style="fill:none;stroke:#ffffff;stroke-width:0.25;stroke-miterlimit:10" />
          <path
             class="st2"
             d="m 178.1,125.4 2.5,2.5 z"
             id="path223"
             inkscape:connector-curvature="0"
             style="fill:none;stroke:#ffffff;stroke-width:0.25;stroke-miterlimit:10" />
          <path
             class="st2"
             d="m 180.7,125.9 2.6,-2.5 z"
             id="path225"
             inkscape:connector-curvature="0"
             style="fill:none;stroke:#ffffff;stroke-width:0.25;stroke-miterlimit:10" />
          <path
             class="st2"
             d="m 180.7,131.2 3.9,-2.9 z"
             id="path227"
             inkscape:connector-curvature="0"
             style="fill:none;stroke:#ffffff;stroke-width:0.25;stroke-miterlimit:10" />
          <path
             class="st2"
             d="m 179.4,120.2 1.4,1.4 z"
             id="path229"
             inkscape:connector-curvature="0"
             style="fill:none;stroke:#ffffff;stroke-width:0.25;stroke-miterlimit:10" />
        </g>
        <line
           class="st3"
           x1="180.75999"
           y1="135.17999"
           x2="180.75999"
           y2="139.22"
           id="line233"
           style="fill:#ffffff;stroke:#071d41;stroke-width:0.5;stroke-miterlimit:10" />
      </g>
      <polyline
         points="70.7,139.2 70.7,134.8 93.2,108 106.4,111.5 106.9,111.6 107.4,110.9 116,100.8 120,99.6 120,93 125.9,91.5 129.8,93 129.8,95.5 137.9,93.2 147.6,110.2 159.3,107.9 179.6,134.8 179.6,139.2"
         style="fill:#ffffff;stroke:#001d43;stroke-width:0.25;stroke-miterlimit:10"
         id="polyline237" />
      <polygon
         class="st5"
         points="125.9,91.4 125.9,99.2 127.3,96.3 129.8,95.5 129.8,92.9 "
         id="polygon239"
         style="fill:#071d41" />
      <polygon
         class="st5"
         points="143.4,139.2 174.8,139.2 174.8,134.8 159.3,114.7 140,139.2 "
         id="polygon241"
         style="fill:#071d41" />
      <polyline
         class="st5"
         points="75.4,139.2 75.4,134.7 93.2,113.8 110.9,137.2 140.6,97.8 147.6,110.2 140.2,111.8 119.5,139.2"
         id="polyline243"
         style="fill:#071d41" />
      <rect
         x="157.3"
         y="130.3"
         width="4.1999998"
         height="8.8000002"
         style="fill:#ffffff"
         id="rect245" />
      <g
         id="g253">
        <rect
           x="90.699997"
           y="131.10001"
           width="5.0999999"
           height="4.9000001"
           style="fill:#fcfdff"
           id="rect247" />
        <line
           class="st8"
           x1="93.220001"
           y1="131.08"
           x2="93.220001"
           y2="135.98"
           id="line249"
           style="fill:none;stroke:#071d41;stroke-width:0.5;stroke-miterlimit:10" />
        <line
           class="st8"
           x1="95.769997"
           y1="133.53999"
           x2="90.68"
           y2="133.53999"
           id="line251"
           style="fill:none;stroke:#071d41;stroke-width:0.5;stroke-miterlimit:10" />
      </g>
      <polyline
         points="93.2,108 110.8,130 137.9,93.1"
         style="fill:none;stroke:#071d41;stroke-width:0.25;stroke-miterlimit:10"
         id="polyline255" />
    </g>
    <path
       class="st5"
       d="m 61.4,139 h 132.7 c 0,0 -6.3,50.5 -64.7,54 0,0 -52.2,3 -68,-54 z"
       id="path259"
       inkscape:connector-curvature="0"
       style="fill:#071d41" />
    <g
       id="g283">
      <defs
         id="defs262">
        <circle
           id="SVGID_1_"
           cx="127.8"
           cy="124.6"
           r="67.900002" />
      </defs>
      <clipPath
         id="SVGID_2_">
        <use
           xlink:href="#SVGID_1_"
           style="overflow:visible"
           id="use264"
           x="0"
           y="0"
           width="100%"
           height="100%" />
      </clipPath>
      <g
         class="st10"
         clip-path="url(#SVGID_2_)"
         id="g269">
        <path
           class="st2"
           d="m 38.9,143.2 c 11.1,0 11.1,10.1 22.2,10.1 11.1,0 11.1,-10.1 22.2,-10.1 11.1,0 11.1,10.1 22.2,10.1 11.1,0 11.1,-10.1 22.2,-10.1 11.1,0 11.1,10.1 22.2,10.1 11.1,0 11.1,-10.1 22.2,-10.1 11.1,0 11.1,10.1 22.2,10.1 11.1,0 11.1,-10.1 22.2,-10.1"
           id="path267"
           inkscape:connector-curvature="0"
           style="fill:none;stroke:#ffffff;stroke-width:0.25;stroke-miterlimit:10" />
      </g>
      <g
         class="st10"
         clip-path="url(#SVGID_2_)"
         id="g273">
        <path
           class="st2"
           d="m 38.9,158.6 c 11.1,0 11.1,10.1 22.2,10.1 11.1,0 11.1,-10.1 22.2,-10.1 11.1,0 11.1,10.1 22.2,10.1 11.1,0 11.1,-10.1 22.2,-10.1 11.1,0 11.1,10.1 22.2,10.1 11.1,0 11.1,-10.1 22.2,-10.1 11.1,0 11.1,10.1 22.2,10.1 11.1,0 11.1,-10.1 22.2,-10.1"
           id="path271"
           inkscape:connector-curvature="0"
           style="fill:none;stroke:#ffffff;stroke-width:0.25;stroke-miterlimit:10" />
      </g>
      <g
         class="st10"
         clip-path="url(#SVGID_2_)"
         id="g277">
        <path
           class="st2"
           d="m 39.1,174.3 c 11.1,0 11.1,10.1 22.2,10.1 11.1,0 11.1,-10.1 22.2,-10.1 11.1,0 11.1,10.1 22.2,10.1 11.1,0 11.1,-10.1 22.2,-10.1 11.1,0 11.1,10.1 22.2,10.1 11.1,0 11.1,-10.1 22.2,-10.1 11.1,0 11.1,10.1 22.2,10.1 11.1,0 11.1,-10.1 22.2,-10.1"
           id="path275"
           inkscape:connector-curvature="0"
           style="fill:none;stroke:#ffffff;stroke-width:0.25;stroke-miterlimit:10" />
      </g>
      <g
         class="st10"
         clip-path="url(#SVGID_2_)"
         id="g281">
        <path
           class="st2"
           d="m 39.1,189.8 c 11.1,0 11.1,10.1 22.2,10.1 11.1,0 11.1,-10.1 22.2,-10.1 11.1,0 11.1,10.1 22.2,10.1 11.1,0 11.1,-10.1 22.2,-10.1 11.1,0 11.1,10.1 22.2,10.1 11.1,0 11.1,-10.1 22.2,-10.1 11.1,0 11.1,10.1 22.2,10.1 11.1,0 11.1,-10.1 22.2,-10.1"
           id="path279"
           inkscape:connector-curvature="0"
           style="fill:none;stroke:#ffffff;stroke-width:0.25;stroke-miterlimit:10" />
      </g>
    </g>
  </g>
</svg>
